<svg xmlns="http://www.w3.org/2000/svg" xmlns:xlink="http://www.w3.org/1999/xlink" width="500" zoomAndPan="magnify" viewBox="0 0 375 374.999991" height="500" preserveAspectRatio="xMidYMid meet" version="1.0"><defs><g/><clipPath id="057e4d8fae"><path d="M 57.46875 132.675781 L 236 132.675781 L 236 242.175781 L 57.46875 242.175781 Z M 57.46875 132.675781 " clip-rule="nonzero"/></clipPath><clipPath id="d0cb9c8d9e"><path d="M 65 136 L 299.660156 136 L 299.660156 239 L 65 239 Z M 65 136 " clip-rule="nonzero"/></clipPath></defs><rect x="-37.5" width="450" fill="#ffffff" y="-37.499999" height="449.999989" fill-opacity="1"/><rect x="-37.5" width="450" fill="#ffffff" y="-37.499999" height="449.999989" fill-opacity="1"/><path fill="#000000" d="M 293.472656 163.78125 C 293.472656 163.78125 292.011719 168.085938 295.667969 174.511719 C 295.667969 174.511719 296.402344 175.648438 291.199219 173.371094 C 285.996094 171.097656 274.941406 167.765625 218.613281 172.3125 C 218.613281 172.316406 264.375 164.023438 293.472656 163.78125 Z M 293.472656 163.78125 " fill-opacity="1" fill-rule="nonzero"/><path fill="#004aad" d="M 258.199219 163.78125 C 258.199219 163.78125 222.476562 170.488281 181.328125 171.21875 C 140.179688 171.949219 132.214844 175.726562 127.253906 177.839844 L 98.96875 178.574219 C 98.96875 178.574219 117.429688 166.722656 170.050781 166.585938 C 216.828125 166.464844 245.03125 164.390625 258.199219 163.78125 Z M 258.199219 163.78125 " fill-opacity="1" fill-rule="nonzero"/><path fill="#004aad" d="M 288.3125 160.855469 C 288.3125 160.855469 273.195312 164.269531 241.375 154.878906 C 241.375 154.878906 203.214844 141.105469 176.027344 165 C 176.027344 165 166.332031 164.753906 160.238281 165 C 160.238281 165 194.171875 140.214844 231.074219 148.175781 C 255.191406 153.375 262.5 159.835938 288.3125 160.855469 Z M 288.3125 160.855469 " fill-opacity="1" fill-rule="nonzero"/><g clip-path="url(#057e4d8fae)"><path fill="#004aad" d="M 194.992188 132.691406 C 209.203125 132.691406 222.90625 133.566406 235.800781 135.191406 C 224.445312 133.957031 212.515625 133.300781 200.207031 133.300781 C 124.21875 133.300781 62.621094 158.355469 62.621094 189.261719 C 62.621094 213.890625 101.746094 234.808594 156.097656 242.285156 C 99.050781 235.464844 57.40625 214.019531 57.40625 188.621094 C 57.40625 157.734375 119.003906 132.691406 194.992188 132.691406 Z M 194.992188 132.691406 " fill-opacity="1" fill-rule="nonzero"/></g><g clip-path="url(#d0cb9c8d9e)"><path fill="#000000" d="M 202.664062 136.289062 C 240.539062 136.289062 274.839844 142.203125 299.722656 151.777344 C 276.066406 144.601562 246.019531 140.308594 213.320312 140.308594 C 137.070312 140.308594 75.257812 163.644531 75.257812 192.433594 C 75.257812 212.03125 103.910156 229.101562 146.265625 238.003906 C 98.402344 229.675781 65.074219 211.082031 65.074219 189.476562 C 65.078125 160.101562 126.675781 136.289062 202.664062 136.289062 Z M 202.664062 136.289062 " fill-opacity="1" fill-rule="nonzero"/></g><g fill="#004aad" fill-opacity="1"><g transform="translate(96.787043, 208.89841)"><g><path d="M 16.28125 -4.296875 L 7.203125 -4.296875 L 4.984375 0 L -1.21875 0 L 11.875 -24.3125 L 18.734375 -24.3125 L 23.234375 0 L 16.96875 0 Z M 15.578125 -8.796875 L 14.15625 -17.796875 L 9.515625 -8.796875 Z M 15.578125 -8.796875 "/></g></g></g><g fill="#004aad" fill-opacity="1"><g transform="translate(123.442334, 208.89841)"><g><path d="M 10.484375 -24.3125 L 7.921875 -9.796875 C 7.835938 -9.203125 7.796875 -8.785156 7.796875 -8.546875 C 7.796875 -7.484375 8.09375 -6.671875 8.6875 -6.109375 C 9.289062 -5.546875 10.179688 -5.265625 11.359375 -5.265625 C 12.742188 -5.265625 13.875 -5.65625 14.75 -6.4375 C 15.625 -7.226562 16.191406 -8.347656 16.453125 -9.796875 L 19.015625 -24.3125 L 24.9375 -24.3125 L 22.375 -9.796875 C 21.976562 -7.609375 21.195312 -5.753906 20.03125 -4.234375 C 18.863281 -2.722656 17.441406 -1.597656 15.765625 -0.859375 C 14.097656 -0.117188 12.28125 0.25 10.3125 0.25 C 7.78125 0.25 5.734375 -0.40625 4.171875 -1.71875 C 2.609375 -3.039062 1.828125 -4.945312 1.828125 -7.4375 C 1.828125 -8.175781 1.898438 -8.960938 2.046875 -9.796875 L 4.578125 -24.3125 Z M 10.484375 -24.3125 "/></g></g></g><g fill="#004aad" fill-opacity="1"><g transform="translate(148.989882, 208.89841)"><g><path d="M 22.15625 -24.3125 L 21.359375 -19.625 L 14.890625 -19.625 L 11.421875 0 L 5.5 0 L 8.96875 -19.625 L 2.53125 -19.625 L 3.359375 -24.3125 Z M 22.15625 -24.3125 "/></g></g></g><g fill="#004aad" fill-opacity="1"><g transform="translate(170.591073, 208.89841)"><g><path d="M 11.953125 0.25 C 9.890625 0.25 8.078125 -0.175781 6.515625 -1.03125 C 4.960938 -1.882812 3.757812 -3.082031 2.90625 -4.625 C 2.050781 -6.175781 1.625 -7.957031 1.625 -9.96875 C 1.625 -12.8125 2.234375 -15.34375 3.453125 -17.5625 C 4.679688 -19.789062 6.382812 -21.53125 8.5625 -22.78125 C 10.75 -24.03125 13.226562 -24.65625 16 -24.65625 C 18.070312 -24.65625 19.894531 -24.234375 21.46875 -23.390625 C 23.039062 -22.546875 24.253906 -21.351562 25.109375 -19.8125 C 25.960938 -18.28125 26.390625 -16.523438 26.390625 -14.546875 C 26.390625 -11.703125 25.773438 -9.15625 24.546875 -6.90625 C 23.328125 -4.65625 21.617188 -2.898438 19.421875 -1.640625 C 17.234375 -0.378906 14.742188 0.25 11.953125 0.25 Z M 12.84375 -5.234375 C 14.363281 -5.234375 15.703125 -5.625 16.859375 -6.40625 C 18.015625 -7.1875 18.910156 -8.238281 19.546875 -9.5625 C 20.179688 -10.894531 20.5 -12.335938 20.5 -13.890625 C 20.5 -15.546875 20.035156 -16.847656 19.109375 -17.796875 C 18.191406 -18.742188 16.898438 -19.21875 15.234375 -19.21875 C 13.710938 -19.21875 12.367188 -18.820312 11.203125 -18.03125 C 10.035156 -17.25 9.132812 -16.207031 8.5 -14.90625 C 7.863281 -13.601562 7.546875 -12.164062 7.546875 -10.59375 C 7.546875 -8.9375 8.003906 -7.628906 8.921875 -6.671875 C 9.847656 -5.710938 11.15625 -5.234375 12.84375 -5.234375 Z M 12.84375 -5.234375 "/></g></g></g><g fill="#004aad" fill-opacity="1"><g transform="translate(198.942608, 208.89841)"><g/></g></g><g fill="#004aad" fill-opacity="1"><g transform="translate(208.081641, 208.89841)"><g><path d="M 1.5625 -12.1875 C 1.976562 -14.582031 2.867188 -16.722656 4.234375 -18.609375 C 5.609375 -20.492188 7.320312 -21.957031 9.375 -23 C 11.4375 -24.050781 13.664062 -24.578125 16.0625 -24.578125 C 18.96875 -24.578125 21.300781 -23.875 23.0625 -22.46875 C 24.832031 -21.0625 25.800781 -19.113281 25.96875 -16.625 L 19.453125 -16.625 C 19.160156 -17.425781 18.640625 -18.039062 17.890625 -18.46875 C 17.140625 -18.894531 16.21875 -19.109375 15.125 -19.109375 C 13.207031 -19.109375 11.5625 -18.476562 10.1875 -17.21875 C 8.820312 -15.96875 7.953125 -14.289062 7.578125 -12.1875 C 7.460938 -11.5 7.40625 -10.898438 7.40625 -10.390625 C 7.40625 -8.679688 7.898438 -7.363281 8.890625 -6.4375 C 9.890625 -5.519531 11.300781 -5.0625 13.125 -5.0625 C 14.601562 -5.0625 15.90625 -5.4375 17.03125 -6.1875 C 18.164062 -6.9375 19.078125 -8.003906 19.765625 -9.390625 L 12.296875 -9.390625 L 13.015625 -13.71875 L 25.90625 -13.71875 L 24.9375 -8.203125 C 24.238281 -6.722656 23.25 -5.347656 21.96875 -4.078125 C 20.6875 -2.816406 19.164062 -1.789062 17.40625 -1 C 15.65625 -0.21875 13.765625 0.171875 11.734375 0.171875 C 9.640625 0.171875 7.800781 -0.234375 6.21875 -1.046875 C 4.632812 -1.867188 3.421875 -3.019531 2.578125 -4.5 C 1.734375 -5.976562 1.3125 -7.695312 1.3125 -9.65625 C 1.3125 -10.332031 1.394531 -11.175781 1.5625 -12.1875 Z M 1.5625 -12.1875 "/></g></g></g><g fill="#004aad" fill-opacity="1"><g transform="translate(235.602368, 208.89841)"><g><path d="M 7.09375 -4.5 L 14.859375 -4.5 L 14.0625 0 L 0.375 0 L 4.671875 -24.3125 L 10.59375 -24.3125 Z M 7.09375 -4.5 "/></g></g></g><g fill="#004aad" fill-opacity="1"><g transform="translate(253.257213, 208.89841)"><g><path d="M 16.28125 -4.296875 L 7.203125 -4.296875 L 4.984375 0 L -1.21875 0 L 11.875 -24.3125 L 18.734375 -24.3125 L 23.234375 0 L 16.96875 0 Z M 15.578125 -8.796875 L 14.15625 -17.796875 L 9.515625 -8.796875 Z M 15.578125 -8.796875 "/></g></g></g><g fill="#004aad" fill-opacity="1"><g transform="translate(279.912504, 208.89841)"><g><path d="M 10.046875 0.25 C 7.410156 0.25 5.265625 -0.320312 3.609375 -1.46875 C 1.960938 -2.613281 1.140625 -4.238281 1.140625 -6.34375 C 1.140625 -6.539062 1.164062 -6.847656 1.21875 -7.265625 L 7.375 -7.265625 C 7.300781 -6.390625 7.503906 -5.695312 7.984375 -5.1875 C 8.472656 -4.6875 9.21875 -4.4375 10.21875 -4.4375 C 11.113281 -4.4375 11.820312 -4.628906 12.34375 -5.015625 C 12.863281 -5.410156 13.125 -5.96875 13.125 -6.6875 C 13.125 -7.425781 12.796875 -8.023438 12.140625 -8.484375 C 11.484375 -8.941406 10.460938 -9.460938 9.078125 -10.046875 C 7.734375 -10.597656 6.640625 -11.117188 5.796875 -11.609375 C 4.953125 -12.109375 4.21875 -12.785156 3.59375 -13.640625 C 2.976562 -14.492188 2.671875 -15.566406 2.671875 -16.859375 C 2.640625 -18.453125 3.03125 -19.835938 3.84375 -21.015625 C 4.65625 -22.191406 5.773438 -23.09375 7.203125 -23.71875 C 8.628906 -24.34375 10.269531 -24.65625 12.125 -24.65625 C 13.78125 -24.65625 15.253906 -24.394531 16.546875 -23.875 C 17.835938 -23.351562 18.84375 -22.601562 19.5625 -21.625 C 20.28125 -20.644531 20.640625 -19.484375 20.640625 -18.140625 C 20.640625 -17.796875 20.628906 -17.539062 20.609375 -17.375 L 14.296875 -17.375 C 14.316406 -17.46875 14.328125 -17.609375 14.328125 -17.796875 C 14.328125 -18.441406 14.101562 -18.96875 13.65625 -19.375 C 13.207031 -19.78125 12.59375 -19.984375 11.8125 -19.984375 C 10.976562 -19.984375 10.300781 -19.78125 9.78125 -19.375 C 9.257812 -18.96875 9 -18.421875 9 -17.734375 C 9 -17.035156 9.320312 -16.445312 9.96875 -15.96875 C 10.613281 -15.5 11.617188 -14.953125 12.984375 -14.328125 C 14.347656 -13.710938 15.460938 -13.140625 16.328125 -12.609375 C 17.191406 -12.078125 17.9375 -11.363281 18.5625 -10.46875 C 19.1875 -9.582031 19.5 -8.492188 19.5 -7.203125 C 19.5 -5.773438 19.113281 -4.492188 18.34375 -3.359375 C 17.582031 -2.222656 16.488281 -1.335938 15.0625 -0.703125 C 13.632812 -0.0664062 11.960938 0.25 10.046875 0.25 Z M 10.046875 0.25 "/></g></g></g><g fill="#004aad" fill-opacity="1"><g transform="translate(302.586819, 208.89841)"><g><path d="M 10.046875 0.25 C 7.410156 0.25 5.265625 -0.320312 3.609375 -1.46875 C 1.960938 -2.613281 1.140625 -4.238281 1.140625 -6.34375 C 1.140625 -6.539062 1.164062 -6.847656 1.21875 -7.265625 L 7.375 -7.265625 C 7.300781 -6.390625 7.503906 -5.695312 7.984375 -5.1875 C 8.472656 -4.6875 9.21875 -4.4375 10.21875 -4.4375 C 11.113281 -4.4375 11.820312 -4.628906 12.34375 -5.015625 C 12.863281 -5.410156 13.125 -5.96875 13.125 -6.6875 C 13.125 -7.425781 12.796875 -8.023438 12.140625 -8.484375 C 11.484375 -8.941406 10.460938 -9.460938 9.078125 -10.046875 C 7.734375 -10.597656 6.640625 -11.117188 5.796875 -11.609375 C 4.953125 -12.109375 4.21875 -12.785156 3.59375 -13.640625 C 2.976562 -14.492188 2.671875 -15.566406 2.671875 -16.859375 C 2.640625 -18.453125 3.03125 -19.835938 3.84375 -21.015625 C 4.65625 -22.191406 5.773438 -23.09375 7.203125 -23.71875 C 8.628906 -24.34375 10.269531 -24.65625 12.125 -24.65625 C 13.78125 -24.65625 15.253906 -24.394531 16.546875 -23.875 C 17.835938 -23.351562 18.84375 -22.601562 19.5625 -21.625 C 20.28125 -20.644531 20.640625 -19.484375 20.640625 -18.140625 C 20.640625 -17.796875 20.628906 -17.539062 20.609375 -17.375 L 14.296875 -17.375 C 14.316406 -17.46875 14.328125 -17.609375 14.328125 -17.796875 C 14.328125 -18.441406 14.101562 -18.96875 13.65625 -19.375 C 13.207031 -19.78125 12.59375 -19.984375 11.8125 -19.984375 C 10.976562 -19.984375 10.300781 -19.78125 9.78125 -19.375 C 9.257812 -18.96875 9 -18.421875 9 -17.734375 C 9 -17.035156 9.320312 -16.445312 9.96875 -15.96875 C 10.613281 -15.5 11.617188 -14.953125 12.984375 -14.328125 C 14.347656 -13.710938 15.460938 -13.140625 16.328125 -12.609375 C 17.191406 -12.078125 17.9375 -11.363281 18.5625 -10.46875 C 19.1875 -9.582031 19.5 -8.492188 19.5 -7.203125 C 19.5 -5.773438 19.113281 -4.492188 18.34375 -3.359375 C 17.582031 -2.222656 16.488281 -1.335938 15.0625 -0.703125 C 13.632812 -0.0664062 11.960938 0.25 10.046875 0.25 Z M 10.046875 0.25 "/></g></g></g><g fill="#004aad" fill-opacity="1"><g transform="translate(325.267501, 208.89841)"><g/></g></g><g fill="#000000" fill-opacity="1"><g transform="translate(138.247685, 228.022989)"><g><path d="M 0.875 -6.890625 C 1.113281 -8.242188 1.617188 -9.453125 2.390625 -10.515625 C 3.171875 -11.578125 4.140625 -12.40625 5.296875 -13 C 6.460938 -13.59375 7.722656 -13.890625 9.078125 -13.890625 C 10.722656 -13.890625 12.039062 -13.488281 13.03125 -12.6875 C 14.03125 -11.894531 14.578125 -10.796875 14.671875 -9.390625 L 11 -9.390625 C 10.820312 -9.847656 10.519531 -10.195312 10.09375 -10.4375 C 9.675781 -10.675781 9.160156 -10.796875 8.546875 -10.796875 C 7.460938 -10.796875 6.53125 -10.441406 5.75 -9.734375 C 4.976562 -9.023438 4.488281 -8.078125 4.28125 -6.890625 C 4.21875 -6.492188 4.1875 -6.15625 4.1875 -5.875 C 4.1875 -4.90625 4.46875 -4.160156 5.03125 -3.640625 C 5.59375 -3.117188 6.390625 -2.859375 7.421875 -2.859375 C 8.253906 -2.859375 8.988281 -3.066406 9.625 -3.484375 C 10.257812 -3.910156 10.773438 -4.515625 11.171875 -5.296875 L 6.9375 -5.296875 L 7.359375 -7.75 L 14.625 -7.75 L 14.078125 -4.640625 C 13.691406 -3.804688 13.132812 -3.03125 12.40625 -2.3125 C 11.6875 -1.59375 10.832031 -1.007812 9.84375 -0.5625 C 8.851562 -0.125 7.78125 0.09375 6.625 0.09375 C 5.4375 0.09375 4.394531 -0.132812 3.5 -0.59375 C 2.613281 -1.0625 1.929688 -1.710938 1.453125 -2.546875 C 0.984375 -3.378906 0.75 -4.347656 0.75 -5.453125 C 0.75 -5.835938 0.789062 -6.316406 0.875 -6.890625 Z M 0.875 -6.890625 "/></g></g></g><g fill="#000000" fill-opacity="1"><g transform="translate(156.472207, 228.022989)"><g><path d="M 5.921875 -13.734375 L 4.484375 -5.53125 C 4.429688 -5.195312 4.40625 -4.960938 4.40625 -4.828125 C 4.40625 -4.234375 4.570312 -3.773438 4.90625 -3.453125 C 5.25 -3.128906 5.753906 -2.96875 6.421875 -2.96875 C 7.203125 -2.96875 7.835938 -3.1875 8.328125 -3.625 C 8.828125 -4.070312 9.148438 -4.707031 9.296875 -5.53125 L 10.734375 -13.734375 L 14.078125 -13.734375 L 12.640625 -5.53125 C 12.421875 -4.289062 11.976562 -3.242188 11.3125 -2.390625 C 10.65625 -1.535156 9.851562 -0.898438 8.90625 -0.484375 C 7.96875 -0.0664062 6.941406 0.140625 5.828125 0.140625 C 4.390625 0.140625 3.226562 -0.226562 2.34375 -0.96875 C 1.46875 -1.71875 1.03125 -2.796875 1.03125 -4.203125 C 1.03125 -4.617188 1.070312 -5.0625 1.15625 -5.53125 L 2.578125 -13.734375 Z M 5.921875 -13.734375 "/></g></g></g><g fill="#000000" fill-opacity="1"><g transform="translate(173.582265, 228.022989)"><g><path d="M 8.25 -13.734375 C 9.675781 -13.734375 10.757812 -13.410156 11.5 -12.765625 C 12.25 -12.117188 12.625 -11.28125 12.625 -10.25 C 12.625 -9.945312 12.597656 -9.664062 12.546875 -9.40625 C 12.390625 -8.5 11.988281 -7.6875 11.34375 -6.96875 C 10.707031 -6.25 9.851562 -5.738281 8.78125 -5.4375 L 11 0 L 7.21875 0 L 5.28125 -5.1875 L 4.484375 -5.1875 L 3.5625 0 L 0.21875 0 L 2.640625 -13.734375 Z M 9.109375 -9.265625 C 9.140625 -9.472656 9.15625 -9.613281 9.15625 -9.6875 C 9.15625 -10.101562 9.019531 -10.425781 8.75 -10.65625 C 8.488281 -10.882812 8.097656 -11 7.578125 -11 L 5.5 -11 L 4.890625 -7.546875 L 6.96875 -7.546875 C 7.582031 -7.546875 8.066406 -7.695312 8.421875 -8 C 8.773438 -8.300781 9.003906 -8.722656 9.109375 -9.265625 Z M 9.109375 -9.265625 "/></g></g></g><g fill="#000000" fill-opacity="1"><g transform="translate(189.656074, 228.022989)"><g><path d="M 5.921875 -13.734375 L 4.484375 -5.53125 C 4.429688 -5.195312 4.40625 -4.960938 4.40625 -4.828125 C 4.40625 -4.234375 4.570312 -3.773438 4.90625 -3.453125 C 5.25 -3.128906 5.753906 -2.96875 6.421875 -2.96875 C 7.203125 -2.96875 7.835938 -3.1875 8.328125 -3.625 C 8.828125 -4.070312 9.148438 -4.707031 9.296875 -5.53125 L 10.734375 -13.734375 L 14.078125 -13.734375 L 12.640625 -5.53125 C 12.421875 -4.289062 11.976562 -3.242188 11.3125 -2.390625 C 10.65625 -1.535156 9.851562 -0.898438 8.90625 -0.484375 C 7.96875 -0.0664062 6.941406 0.140625 5.828125 0.140625 C 4.390625 0.140625 3.226562 -0.226562 2.34375 -0.96875 C 1.46875 -1.71875 1.03125 -2.796875 1.03125 -4.203125 C 1.03125 -4.617188 1.070312 -5.0625 1.15625 -5.53125 L 2.578125 -13.734375 Z M 5.921875 -13.734375 "/></g></g></g><g fill="#000000" fill-opacity="1"><g transform="translate(206.76613, 228.022989)"><g><path d="M 5.671875 0.140625 C 4.179688 0.140625 2.96875 -0.179688 2.03125 -0.828125 C 1.101562 -1.472656 0.640625 -2.390625 0.640625 -3.578125 C 0.640625 -3.691406 0.65625 -3.867188 0.6875 -4.109375 L 4.171875 -4.109375 C 4.128906 -3.609375 4.242188 -3.210938 4.515625 -2.921875 C 4.796875 -2.640625 5.210938 -2.5 5.765625 -2.5 C 6.273438 -2.5 6.675781 -2.609375 6.96875 -2.828125 C 7.269531 -3.054688 7.421875 -3.375 7.421875 -3.78125 C 7.421875 -4.195312 7.234375 -4.535156 6.859375 -4.796875 C 6.484375 -5.054688 5.90625 -5.347656 5.125 -5.671875 C 4.363281 -5.984375 3.742188 -6.28125 3.265625 -6.5625 C 2.796875 -6.84375 2.382812 -7.222656 2.03125 -7.703125 C 1.675781 -8.191406 1.5 -8.800781 1.5 -9.53125 C 1.488281 -10.425781 1.710938 -11.207031 2.171875 -11.875 C 2.628906 -12.539062 3.257812 -13.046875 4.0625 -13.390625 C 4.875 -13.742188 5.800781 -13.921875 6.84375 -13.921875 C 7.78125 -13.921875 8.613281 -13.773438 9.34375 -13.484375 C 10.082031 -13.191406 10.648438 -12.769531 11.046875 -12.21875 C 11.453125 -11.664062 11.65625 -11.007812 11.65625 -10.25 C 11.65625 -10.050781 11.648438 -9.910156 11.640625 -9.828125 L 8.078125 -9.828125 C 8.085938 -9.878906 8.09375 -9.957031 8.09375 -10.0625 C 8.09375 -10.425781 7.960938 -10.71875 7.703125 -10.9375 C 7.453125 -11.164062 7.109375 -11.28125 6.671875 -11.28125 C 6.203125 -11.28125 5.820312 -11.164062 5.53125 -10.9375 C 5.238281 -10.71875 5.09375 -10.410156 5.09375 -10.015625 C 5.09375 -9.617188 5.273438 -9.285156 5.640625 -9.015625 C 6.003906 -8.753906 6.566406 -8.445312 7.328125 -8.09375 C 8.097656 -7.75 8.726562 -7.425781 9.21875 -7.125 C 9.707031 -6.820312 10.128906 -6.421875 10.484375 -5.921875 C 10.835938 -5.421875 11.015625 -4.800781 11.015625 -4.0625 C 11.015625 -3.257812 10.796875 -2.535156 10.359375 -1.890625 C 9.929688 -1.253906 9.3125 -0.753906 8.5 -0.390625 C 7.695312 -0.0351562 6.753906 0.140625 5.671875 0.140625 Z M 5.671875 0.140625 "/></g></g></g></svg>